<svg id="visual" viewBox="0 0 900 600" width="900" height="600" xmlns="http://www.w3.org/2000/svg" xmlns:xlink="http://www.w3.org/1999/xlink" version="1.1"><rect x="0" y="0" width="900" height="600" fill="#001220"></rect><defs><linearGradient id="grad1_0" x1="33.3%" y1="0%" x2="100%" y2="100%"><stop offset="20%" stop-color="#001220" stop-opacity="1"></stop><stop offset="80%" stop-color="#001220" stop-opacity="1"></stop></linearGradient></defs><defs><linearGradient id="grad2_0" x1="0%" y1="0%" x2="66.7%" y2="100%"><stop offset="20%" stop-color="#001220" stop-opacity="1"></stop><stop offset="80%" stop-color="#001220" stop-opacity="1"></stop></linearGradient></defs><g transform="translate(900, 0)"><path d="M0 324.5C-36.3 308.2 -72.7 292 -116 279.9C-159.2 267.9 -209.4 260 -229.5 229.5C-249.5 198.9 -239.5 145.7 -250.4 103.7C-261.2 61.7 -292.8 30.8 -324.5 0L0 0Z" fill="#FBAE3C"></path></g><g transform="translate(0, 600)"><path d="M0 -324.5C31.7 -294.9 63.5 -265.2 105.2 -254.1C147 -242.9 198.8 -250.3 229.5 -229.5C260.1 -208.6 269.5 -159.7 281.8 -116.7C294.1 -73.8 309.3 -36.9 324.5 0L0 0Z" fill="#FBAE3C"></path></g></svg>